# xmcd
# Copyright (C) 1995-1998 Ti Kan
#
# Track frame offsets:
#       150
#       17549
#       35400
#       53518
#       72062
#       92009
#       108703
#       137354
#       155447
#       173660
#       191474
#       215329
#
# Disc length: 3222 seconds
#
# Revision: 0
# Processed by: cddbd v1.5.2PL0 Copyright (c) Steve Scherf et al.
# Submitted via: CD-Import v1.0
#
DISCID=910c940c
DTITLE=Catcha - Catcha
DYEAR=06
DGENRE=
TTITLE0=Catcha
TTITLE1=U Noticed
TTITLE2=Wait A Moment
TTITLE3=I Sometimes Watch
TTITLE4=4 Real
TTITLE5=River
TTITLE6=Precious
TTITLE7=Goodmorning
TTITLE8=Princess
TTITLE9=Dweed
TTITLE10=Smile
TTITLE11=Clown
EXTD=
EXTT0=
EXTT1=
EXTT2=
EXTT3=
EXTT4=
EXTT5=
EXTT6=
EXTT7=
EXTT8=
EXTT9=
EXTT10=
EXTT11=
PLAYORDER=
